<svg xmlns="http://www.w3.org/2000/svg" viewBox="0 0 1397.72 164.61"><g><g><polygon points="1378.97 164.61 0 164.61 0 138.74 50.45 138.74 50.45 118.04 87.96 118.04 87.96 55.95 119.01 55.95 119.01 118.04 153.93 118.04 153.93 88.29 160.91 88.29 160.91 81.13 205.25 81.13 205.25 88.29 211.18 88.29 211.18 117.39 224.76 117.39 224.76 73.73 247.07 73.73 247.07 119.33 253.86 119.33 253.86 104.78 274.24 104.78 274.24 79.56 304.31 79.56 304.31 114.48 336.33 114.48 336.33 43.66 352.82 43.66 352.82 33.96 438.2 33.96 438.2 46.57 450.81 46.57 450.81 118.36 468.28 118.36 468.28 100.9 484.77 100.9 484.77 118.36 502.23 118.36 502.23 92.17 541.04 92.17 541.04 119.33 541.04 127.09 563.36 127.09 578.88 127.09 578.88 6.79 590.52 6.79 590.52 0 608.95 0 608.95 7.76 619.63 7.76 619.63 103.81 658.43 103.81 658.43 49.48 697.24 49.48 697.24 83.44 785.53 83.44 785.53 119.33 824.34 119.33 824.34 32.02 868.97 32.02 868.97 100.9 900.01 100.9 900.01 121.27 931.06 121.27 931.06 103.81 946.58 103.81 946.58 57.24 965.01 57.24 965.01 44.63 1045.54 44.63 1045.54 57.24 1063 57.24 1063 109.63 1078.53 109.63 1078.53 125.16 1097.93 125.16 1097.93 88.29 1186.22 88.29 1186.22 108.66 1262.86 108.66 1262.86 134.86 1305.55 134.86 1305.55 120.3 1330.78 120.3 1330.78 134.86 1362.79 134.86 1362.79 152.32 1397.72 152.32 1397.72 164.61 1378.97 164.61" style="fill:#00a09c"/></g></g></svg>